HIERARCHY
ROOT Hips
{
 OFFSET 0.000000 0.000000 0.000000
 CHANNELS 6 Xposition Yposition Zposition Yrotation Xrotation Zrotation
 JOINT Chest
 {
  OFFSET 0.000000 10.101222 -0.056779
  CHANNELS 3 Yrotation Xrotation Zrotation
  JOINT Chest2
  {
   OFFSET 0.000000 8.297218 0.103137
   CHANNELS 3 Yrotation Xrotation Zrotation
   JOINT Chest3
   {
    OFFSET 0.000000 7.493411 0.000000
    CHANNELS 3 Yrotation Xrotation Zrotation
    JOINT Chest4
    {
     OFFSET 0.000000 7.493411 0.000000
     CHANNELS 3 Yrotation Xrotation Zrotation
     JOINT Neck
     {
      OFFSET 0.000000 10.747351 0.000000
      CHANNELS 3 Yrotation Xrotation Zrotation
      JOINT Head
      {
       OFFSET 0.000000 7.717153 0.188667
       CHANNELS 3 Yrotation Xrotation Zrotation
       End Site
       {
        OFFSET 0.000000 14.853047 0.068983
       }
      }
     }
     JOINT RightCollar
     {
      OFFSET -2.766550 6.061559 0.000000
      CHANNELS 3 Yrotation Xrotation Zrotation
      JOINT RightShoulder
      {
       OFFSET -14.830725 0.000000 0.000000
       CHANNELS 3 Yrotation Xrotation Zrotation
       JOINT RightElbow
       {
        OFFSET -28.959634 0.000000 0.000000
        CHANNELS 3 Yrotation Xrotation Zrotation
        JOINT RightWrist
        {
         OFFSET -23.742631 0.000000 0.003006
         CHANNELS 3 Yrotation Xrotation Zrotation
         End Site
         {
          OFFSET -17.766445 0.000000 0.000000
         }
        }
       }
      }
     }
     JOINT LeftCollar
     {
      OFFSET 2.766550 6.061559 0.000000
      CHANNELS 3 Yrotation Xrotation Zrotation
      JOINT LeftShoulder
      {
       OFFSET 14.830725 0.000000 0.000000
       CHANNELS 3 Yrotation Xrotation Zrotation
       JOINT LeftElbow
       {
        OFFSET 28.959634 0.000000 0.000000
        CHANNELS 3 Yrotation Xrotation Zrotation
        JOINT LeftWrist
        {
         OFFSET 23.742631 0.000000 0.003006
         CHANNELS 3 Yrotation Xrotation Zrotation
         End Site
         {
          OFFSET 17.766445 0.000000 0.000000
         }
        }
       }
      }
     }
    }
   }
  }
 }
 JOINT RightHip
 {
  OFFSET -8.655184 0.278217 0.028389
  CHANNELS 3 Yrotation Xrotation Zrotation
  JOINT RightKnee
  {
   OFFSET 0.000000 -47.671744 -0.001158
   CHANNELS 3 Yrotation Xrotation Zrotation
   JOINT RightAnkle
   {
    OFFSET 0.000000 -42.492694 -0.036854
    CHANNELS 3 Yrotation Xrotation Zrotation
    JOINT RightToe
    {
     OFFSET 0.000000 -5.741774 14.901460
     CHANNELS 3 Yrotation Xrotation Zrotation
     End Site
     {
      OFFSET 0.000000 -1.778666 8.212983
     }
    }
   }
  }
 }
 JOINT LeftHip
 {
  OFFSET 8.655184 0.278217 0.028389
  CHANNELS 3 Yrotation Xrotation Zrotation
  JOINT LeftKnee
  {
   OFFSET 0.000000 -47.671744 -0.001158
   CHANNELS 3 Yrotation Xrotation Zrotation
   JOINT LeftAnkle
   {
    OFFSET 0.000000 -42.492694 -0.036854
    CHANNELS 3 Yrotation Xrotation Zrotation
    JOINT LeftToe
    {
     OFFSET 0.000000 -5.741774 14.901460
     CHANNELS 3 Yrotation Xrotation Zrotation
     End Site
     {
      OFFSET 0.000000 -1.778666 8.212983
     }
    }
   }
  }
 }
}
MOTION
Frames: 16
Frame Time: 0.004167
0.000000 95.428143 0.000000 0.000000 -5.826342 0.000000 0.000000 11.116423 0.000000 0.000000 -5.290081 0.000000 0.000000 0.000000 0.000000 0.000000 0.000000 0.000000 0.000000 12.665069 0.000000 0.000000 0.575450 0.000000 0.000000 0.000000 0.000000 0.000000 0.000000 0.000000 2.337306 0.000000 0.000000 -2.337306 0.000000 0.000000 0.000000 0.000000 0.000000 0.000000 0.000000 0.000000 -2.337306 0.000000 0.000000 2.337306 0.000000 0.000000 0.000000 8.578828 0.000000 0.000000 1.905768 0.000000 0.000000 -4.658254 0.000000 0.000000 0.000000 0.000000 0.000000 8.578828 0.000000 0.000000 1.905768 0.000000 0.000000 -4.658254 0.000000 0.000000 0.000000 0.000000
512.838969 96.395843 789.515531 -161.428080 -11.895376 -5.669104 -1.502295 11.129224 0.492512 -0.693230 -2.696062 0.299088 -0.693173 2.593632 0.235109 -0.520789 1.944961 0.179246 7.727411 15.770977 1.063421 14.011424 -6.646136 -0.833231 1.752836 -3.734211 -4.055649 6.292911 -17.473632 66.487747 119.184996 -15.590409 18.214250 8.715283 -10.593178 11.799647 -0.499917 -1.678701 -6.361379 -4.764469 9.284984 -69.839463 -4.441276 -32.664024 -91.551002 -8.638457 -32.103649 -15.018170 5.509053 17.947166 3.583181 1.960507 0.617537 0.992002 -9.530553 -3.908321 -3.318906 -0.012480 -1.580418 6.381524 6.737318 20.284215 1.455246 -5.456734 -7.496782 -3.978854 22.175207 -7.194765 5.736971 0.000000 0.000000 0.000000
512.838024 96.395752 789.521389 -161.424490 -11.893740 -5.668075 -1.498795 11.127322 0.489606 -0.691521 -2.696896 0.297605 -0.691463 2.592800 0.233784 -0.519501 1.944339 0.178244 7.724704 15.771940 1.066204 14.005303 -6.644872 -0.826995 1.751409 -3.736016 -4.054128 6.293387 -17.481730 66.488666 119.171427 -15.594292 18.211249 8.727081 -10.609844 11.814698 -0.501621 -1.675084 -6.362963 -4.765420 9.282623 -69.839170 -4.445432 -32.664996 -91.553650 -8.637523 -32.111529 -15.022633 5.500566 17.941248 3.578034 1.962426 0.622384 0.992023 -9.529684 -3.909448 -3.319086 -0.012511 -1.579824 6.383747 6.735248 20.281295 1.452638 -5.459202 -7.500241 -3.979662 22.174188 -7.191720 5.739963 0.000000 -0.000000 -0.000000
512.837087 96.395636 789.527271 -161.420591 -11.892248 -5.667107 -1.495455 11.125591 0.486737 -0.689884 -2.697656 0.296148 -0.689825 2.592043 0.232478 -0.518267 1.943773 0.177256 7.722002 15.772756 1.068918 13.999226 -6.643871 -0.820906 1.750007 -3.737801 -4.052770 6.294260 -17.489705 66.488944 119.157997 -15.598217 18.208619 8.738553 -10.625271 11.828926 -0.503257 -1.671707 -6.364538 -4.766692 9.280499 -69.838942 -4.448563 -32.665822 -91.556474 -8.636173 -32.119337 -15.028138 5.492195 17.935387 3.573048 1.964131 0.627457 0.992007 -9.528946 -3.910789 -3.319289 -0.012534 -1.579110 6.386031 6.733445 20.278612 1.450237 -5.461997 -7.503937 -3.980481 22.172980 -7.188560 5.743030 -0.000000 -0.000000 -0.000000
512.836155 96.395495 789.533164 -161.416385 -11.891009 -5.666256 -1.492326 11.124122 0.483955 -0.688346 -2.698299 0.294741 -0.688286 2.591401 0.231213 -0.517108 1.943294 0.176301 7.719397 15.773340 1.071457 13.993412 -6.643274 -0.815200 1.748724 -3.739636 -4.051627 6.295779 -17.497457 66.488351 119.145072 -15.601731 18.206255 8.749148 -10.638711 11.841417 -0.504715 -1.668733 -6.365995 -4.768175 9.278672 -69.838986 -4.450831 -32.666545 -91.559242 -8.634216 -32.127283 -15.034716 5.484088 17.929681 3.568327 1.965590 0.632768 0.991945 -9.528387 -3.912367 -3.319480 -0.012538 -1.578194 6.388348 6.731966 20.276290 1.448132 -5.465123 -7.507897 -3.981329 22.171576 -7.185280 5.746184 0.000000 0.000000 0.000000
512.835223 96.395332 789.539054 -161.411876 -11.890133 -5.665576 -1.489460 11.123007 0.481310 -0.686932 -2.698785 0.293410 -0.686872 2.590917 0.230013 -0.516042 1.942932 0.175394 7.716987 15.773606 1.073718 13.988082 -6.643218 -0.810115 1.747654 -3.741591 -4.050749 6.298193 -17.504885 66.486656 119.133014 -15.604383 18.204051 8.758316 -10.649416 11.851263 -0.505887 -1.666324 -6.367224 -4.769763 9.277199 -69.839508 -4.452397 -32.667211 -91.561723 -8.631459 -32.135581 -15.042396 5.476395 17.924226 3.563974 1.966769 0.638330 0.991830 -9.528059 -3.914207 -3.319621 -0.012516 -1.576992 6.390669 6.730868 20.274451 1.446413 -5.468584 -7.512147 -3.982224 22.169966 -7.181878 5.749436 0.000000 0.000000 0.000000
512.834287 96.395148 789.544927 -161.407066 -11.889725 -5.665121 -1.486908 11.122338 0.478851 -0.685667 -2.699074 0.292180 -0.685607 2.590629 0.228900 -0.515088 1.942718 0.174554 7.714864 15.773469 1.075593 13.983456 -6.643843 -0.805888 1.746893 -3.743735 -4.050187 6.301751 -17.511887 66.483627 119.122190 -15.605721 18.201904 8.765506 -10.656638 11.857552 -0.506665 -1.664641 -6.368116 -4.771348 9.276139 -69.840717 -4.453422 -32.667864 -91.563686 -8.627712 -32.144441 -15.051210 5.469265 17.919118 3.560090 1.967637 0.644156 0.991654 -9.528011 -3.916335 -3.319676 -0.012459 -1.575422 6.392966 6.730207 20.273217 1.445167 -5.472383 -7.516713 -3.983183 22.168141 -7.178350 5.752798 0.000000 0.000000 0.000000
512.833344 96.394942 789.550768 -161.401958 -11.889896 -5.664947 -1.484722 11.122207 0.476628 -0.684577 -2.699124 0.291076 -0.684517 2.590580 0.227896 -0.514267 1.942683 0.173796 7.713124 15.772845 1.076980 13.979755 -6.645286 -0.802758 1.746535 -3.746140 -4.049991 6.306700 -17.518364 66.479035 119.112961 -15.605295 18.199709 8.770167 -10.659630 11.859372 -0.506939 -1.663846 -6.368563 -4.772823 9.275550 -69.842821 -4.454069 -32.668548 -91.564899 -8.622781 -32.154076 -15.061187 5.462847 17.914455 3.556780 1.968159 0.650258 0.991409 -9.528292 -3.918776 -3.319608 -0.012358 -1.573400 6.395211 6.730040 20.272710 1.444485 -5.476523 -7.521620 -3.984224 22.166092 -7.174692 5.756283 0.000000 -0.000000 0.000000
512.832398 96.394697 789.556571 -161.396508 -11.890640 -5.665045 -1.482959 11.122606 0.474627 -0.683688 -2.698940 0.290094 -0.683628 2.590765 0.226997 -0.513597 1.942823 0.173118 7.711643 15.771711 1.077860 13.976755 -6.647596 -0.800714 1.746565 -3.748890 -4.050172 6.313038 -17.524442 66.472737 119.105035 -15.603840 18.197991 8.772168 -10.657731 11.856960 -0.506723 -1.663941 -6.368740 -4.774500 9.275605 -69.845736 -4.453741 -32.669268 -91.565652 -8.616575 -32.164442 -15.073045 5.456927 17.910288 3.554024 1.968466 0.656576 0.991006 -9.528872 -3.921556 -3.319431 -0.012214 -1.570915 6.397452 6.730568 20.273026 1.444449 -5.481127 -7.527074 -3.985368 22.163710 -7.170811 5.759925 -0.000000 0.000000 -0.000000
512.831455 96.394399 789.562347 -161.390685 -11.891835 -5.665350 -1.481602 11.123429 0.472788 -0.682987 -2.698568 0.289208 -0.682928 2.591138 0.226174 -0.513068 1.943104 0.172499 7.710236 15.770149 1.078336 13.974072 -6.650649 -0.799491 1.746872 -3.751964 -4.050684 6.320491 -17.530314 66.464895 119.097827 -15.602319 18.197200 8.772024 -10.651337 11.851459 -0.506142 -1.664750 -6.368879 -4.776695 9.276349 -69.849183 -4.451881 -32.669977 -91.566382 -8.609242 -32.175278 -15.087209 5.451208 17.906548 3.551697 1.968674 0.663059 0.990396 -9.529679 -3.924666 -3.319197 -0.012039 -1.568049 6.399750 6.731856 20.274091 1.445013 -5.486266 -7.533178 -3.986607 22.160934 -7.166653 5.763734 0.000000 -0.000000 -0.000000
512.830517 96.394057 789.568107 -161.384511 -11.893415 -5.665831 -1.480584 11.124622 0.471085 -0.682444 -2.698032 0.288401 -0.682386 2.591674 0.225418 -0.512659 1.943507 0.171930 7.708913 15.768223 1.078485 13.971688 -6.654333 -0.798943 1.747402 -3.755272 -4.051488 6.328903 -17.535973 66.455733 119.091266 -15.600618 18.197115 8.770156 -10.641284 11.843321 -0.505261 -1.666170 -6.368955 -4.779306 9.277650 -69.853075 -4.448714 -32.670646 -91.567076 -8.600951 -32.186474 -15.103269 5.445710 17.903143 3.549744 1.968735 0.669731 0.989634 -9.530696 -3.928074 -3.318919 -0.011836 -1.564863 6.402098 6.733758 20.275776 1.446078 -5.491873 -7.539802 -3.987918 22.157829 -7.162270 5.767684 0.000000 -0.000000 -0.000000
512.829583 96.393681 789.573865 -161.378009 -11.895315 -5.666458 -1.479842 11.126130 0.469494 -0.682030 -2.697357 0.287659 -0.681973 2.592350 0.224714 -0.512346 1.944015 0.171402 7.707680 15.765999 1.078383 13.969585 -6.658534 -0.798925 1.748104 -3.758722 -4.052544 6.338119 -17.541411 66.445474 119.085278 -15.598622 18.197517 8.766984 -10.628409 11.832998 -0.504140 -1.668097 -6.368940 -4.782231 9.279379 -69.857325 -4.444461 -32.671245 -91.567724 -8.591872 -32.197919 -15.120816 5.440455 17.899983 3.548110 1.968598 0.676617 0.988773 -9.531908 -3.931751 -3.318613 -0.011611 -1.561416 6.404486 6.736130 20.277951 1.447541 -5.497880 -7.546819 -3.989281 22.154463 -7.157714 5.771747 -0.000000 -0.000000 0.000000
512.828653 96.393282 789.579634 -161.371200 -11.897468 -5.667202 -1.479311 11.127900 0.467992 -0.681715 -2.696566 0.286969 -0.681658 2.593141 0.224053 -0.512107 1.944609 0.170905 7.706546 15.763542 1.078106 13.967744 -6.663138 -0.799291 1.748924 -3.762221 -4.053816 6.347983 -17.546622 66.434344 119.079792 -15.596216 18.198187 8.762929 -10.613546 11.820943 -0.502843 -1.670427 -6.368809 -4.785367 9.281404 -69.861846 -4.439347 -32.671742 -91.568315 -8.582175 -32.209501 -15.139441 5.435463 17.896979 3.546738 1.968215 0.683741 0.987866 -9.533301 -3.935665 -3.318294 -0.011368 -1.557766 6.406907 6.738825 20.280487 1.449300 -5.504218 -7.554100 -3.990672 22.150899 -7.153039 5.775896 -0.000000 0.000000 -0.000000
512.827728 96.392868 789.585426 -161.364107 -11.899808 -5.668033 -1.478927 11.129877 0.466552 -0.681467 -2.695682 0.286315 -0.681411 2.594025 0.223422 -0.511920 1.945273 0.170432 7.705518 15.760919 1.077731 13.966149 -6.668032 -0.799894 1.749812 -3.765678 -4.055263 6.358340 -17.551599 66.422566 119.074736 -15.593285 18.198904 8.758413 -10.597531 11.807607 -0.501432 -1.673057 -6.368533 -4.788612 9.283595 -69.866551 -4.433594 -32.672109 -91.568838 -8.572030 -32.221110 -15.158733 5.430757 17.894039 3.545575 1.967536 0.691129 0.986968 -9.534859 -3.939786 -3.317978 -0.011112 -1.553973 6.409352 6.741700 20.283252 1.451255 -5.510818 -7.561516 -3.992071 22.147205 -7.148298 5.780105 0.000000 0.000000 0.000000
512.826808 96.392449 789.591255 -161.356752 -11.902269 -5.668921 -1.478625 11.132008 0.465151 -0.681258 -2.694731 0.285683 -0.681204 2.594977 0.222809 -0.511762 1.945987 0.169973 7.704603 15.758194 1.077333 13.964779 -6.673102 -0.800591 1.750714 -3.769002 -4.056847 6.369033 -17.556335 66.410365 119.070038 -15.589714 18.199449 8.753859 -10.581200 11.793442 -0.499968 -1.675883 -6.368087 -4.791864 9.285821 -69.871353 -4.427424 -32.672315 -91.569280 -8.561610 -32.232635 -15.178283 5.426356 17.891075 3.544565 1.966511 0.698804 0.986132 -9.536567 -3.944084 -3.317679 -0.010847 -1.550096 6.411813 6.744608 20.286118 1.453304 -5.517613 -7.568939 -3.993455 22.143444 -7.143543 5.784346 0.000000 0.000000 0.000000
512.825893 96.392036 789.597134 -161.349156 -11.904784 -5.669835 -1.478340 11.134240 0.463764 -0.681058 -2.693735 0.285059 -0.681005 2.595973 0.222204 -0.511610 1.946735 0.169519 7.703809 15.755434 1.076989 13.963619 -6.678234 -0.801234 1.751578 -3.772100 -4.058531 6.379907 -17.560826 66.397965 119.065624 -15.585389 18.199602 8.749692 -10.565386 11.778900 -0.498515 -1.678802 -6.367444 -4.795021 9.287951 -69.876165 -4.421062 -32.672328 -91.569632 -8.551087 -32.243965 -15.197679 5.422283 17.887995 3.543652 1.965092 0.706793 0.985412 -9.538410 -3.948527 -3.317412 -0.010579 -1.546194 6.414281 6.747403 20.288955 1.455344 -5.524534 -7.576240 -3.994802 22.139684 -7.138828 5.788593 -0.000000 0.000000 -0.000000
